<?xml version="1.0" encoding="UTF-8" standalone="no"?>
<svg width="156px" height="20px" viewBox="0 0 156 20" version="1.1" xmlns="http://www.w3.org/2000/svg" xmlns:xlink="http://www.w3.org/1999/xlink">
    <!-- Generator: Sketch 48.2 (47327) - http://www.bohemiancoding.com/sketch -->
    <title>Sangeetha MG</title>
    <desc>Created with Sketch.</desc>
    <defs></defs>
    <g id="big-letter-copy-18" stroke="none" stroke-width="1" fill="none" fill-rule="evenodd" transform="translate(-139.000000, -30.000000)">
        <path d="M147.325829,33.6344315 C146.526829,33.3793824 145.823294,33.2518597 145.215205,33.2518597 C144.536408,33.2518597 143.999035,33.3793824 143.60307,33.6344315 C143.207105,33.8894806 143.009126,34.2437101 143.009126,34.6971307 C143.009126,35.1080431 143.147004,35.4516458 143.422765,35.727949 C143.698527,36.0042522 144.044991,36.2309591 144.462168,36.4080765 C144.879346,36.5851939 145.448537,36.7800202 146.169759,36.9925611 C147.173813,37.2901184 147.997549,37.5876712 148.640992,37.8852285 C149.284435,38.1827858 149.832414,38.6220304 150.284946,39.2029756 C150.737477,39.7839207 150.96374,40.5490565 150.96374,41.498406 C150.96374,42.4052472 150.719801,43.1951791 150.231915,43.8682253 C149.74403,44.5412715 149.072313,45.0549044 148.216746,45.4091392 C147.361179,45.7633741 146.381887,45.9404888 145.278842,45.9404888 C144.11923,45.9404888 142.987919,45.7244088 141.884873,45.2922423 C140.781828,44.8600758 139.820213,44.2826816 139,43.5600425 L140.187889,41.1370882 C140.937394,41.8313885 141.778807,42.376902 142.712153,42.7736451 C143.645499,43.1703881 144.515195,43.3687566 145.321267,43.3687566 C146.113197,43.3687566 146.735418,43.2164379 147.187949,42.911796 C147.640481,42.607154 147.866743,42.1927054 147.866743,41.6684378 C147.866743,41.243356 147.728865,40.8926688 147.453103,40.6163656 C147.177342,40.3400624 146.827342,40.1168978 146.403094,39.946865 C145.978846,39.7768323 145.399049,39.5855484 144.663685,39.3730074 C143.659631,39.0754502 142.83943,38.7849819 142.203058,38.501594 C141.566686,38.2182062 141.022242,37.7895884 140.569711,37.2157279 C140.117179,36.6418675 139.890917,35.8873586 139.890917,34.9521785 C139.890917,34.0878455 140.120714,33.3333366 140.580317,32.6886291 C141.039919,32.0439217 141.690423,31.544458 142.531849,31.1902232 C143.373274,30.8359883 144.345495,30.6588735 145.448541,30.6588735 C146.41017,30.6588735 147.361179,30.8005654 148.301595,31.0839532 C149.242012,31.3673411 150.07989,31.749909 150.815254,32.2316684 L149.669789,34.7183847 C148.906142,34.2507947 148.12483,33.8894806 147.325829,33.6344315 Z M160.490421,45.770457 L160.490421,44.3889479 C160.094456,44.8848767 159.585366,45.26036 158.963135,45.5154091 C158.340905,45.7704582 157.626764,45.8979809 156.820693,45.8979809 C156.028763,45.8979809 155.332299,45.7456622 154.731281,45.4410202 C154.130262,45.1363782 153.667132,44.7148451 153.341875,44.1764081 C153.016618,43.6379711 152.853992,43.0357809 152.853992,42.3698193 C152.853992,41.3071148 153.228739,40.4746753 153.978244,39.8724761 C154.727749,39.2702768 155.788354,38.9620971 157.160089,38.9479277 L160.469209,38.9479277 L160.469209,38.6503719 C160.469209,37.9844104 160.250017,37.4672353 159.811627,37.098831 C159.373238,36.7304268 158.736875,36.5462274 157.90252,36.5462274 C156.827758,36.5462274 155.703517,36.900457 154.529764,37.6089267 L153.532785,35.696068 C154.423707,35.2001392 155.233301,34.8423674 155.961594,34.6227418 C156.689887,34.4031162 157.541906,34.293305 158.517677,34.293305 C159.988404,34.293305 161.130322,34.6475345 161.943464,35.3560043 C162.756606,36.064474 163.170242,37.0563167 163.184384,38.3315622 L163.205596,45.770457 L160.490421,45.770457 Z M159.514655,43.2093518 C160.08032,42.8338628 160.398501,42.3698221 160.469209,41.8172157 L160.469209,40.7970244 L157.605548,40.7970244 C156.870184,40.7970244 156.329276,40.9068356 155.982807,41.1264612 C155.636337,41.3460868 155.463105,41.7038587 155.463105,42.1997875 C155.463105,42.6815469 155.643408,43.0641148 156.004019,43.3475027 C156.36463,43.6308905 156.856043,43.7725824 157.478274,43.7725824 C158.270204,43.7725824 158.948991,43.5848407 159.514655,43.2093518 Z M176.444431,35.4729012 C177.193936,36.2593026 177.568683,37.3255335 177.568683,38.6716259 L177.568683,45.770457 L174.789871,45.770457 L174.789871,39.4792774 C174.789871,38.6857913 174.563609,38.058805 174.111078,37.5982997 C173.658546,37.1377944 173.043395,36.9075452 172.265607,36.9075452 C171.346403,36.9217146 170.621656,37.2334366 170.091346,37.8427205 C169.561036,38.4520045 169.295884,39.2313095 169.295884,40.1806589 L169.295884,45.770457 L166.538285,45.770457 L166.538285,34.3995749 L169.295884,34.3995749 L169.295884,36.5249734 C170.073673,35.0655258 171.431247,34.3216438 173.368647,34.293305 C174.669675,34.293305 175.694926,34.6864998 176.444431,35.4729012 Z M191.274189,34.3995749 L191.274189,44.6865037 C191.274189,45.7633777 191.03025,46.702086 190.542364,47.5026567 C190.054479,48.3032275 189.36155,48.9195869 188.463558,49.3517535 C187.565566,49.78392 186.522638,50 185.334743,50 C183.609467,50 182.01149,49.496994 180.540763,48.4909671 L181.643803,46.4930925 C182.718565,47.2865785 183.899371,47.6833156 185.186257,47.6833156 C186.204453,47.6833156 187.014048,47.4211858 187.615066,46.8969182 C188.216084,46.3726506 188.516589,45.6571069 188.516589,44.7502657 L188.516589,43.4112646 C188.134766,43.9922098 187.639817,44.4349967 187.031728,44.7396387 C186.423639,45.0442807 185.716569,45.1965994 184.910497,45.1965994 C183.920585,45.1965994 183.043818,44.9663502 182.280172,44.5058448 C181.516525,44.0453395 180.922586,43.4006418 180.498338,42.5717322 C180.07409,41.7428226 179.861969,40.7899452 179.861969,39.7130712 C179.861969,38.6503666 180.07409,37.7116583 180.498338,36.8969182 C180.922586,36.082178 181.516525,35.4481071 182.280172,34.9946865 C183.043818,34.5412659 183.920585,34.314559 184.910497,34.314559 C185.702427,34.314559 186.405962,34.47042 187.021122,34.7821467 C187.636282,35.0938733 188.134766,35.533118 188.516589,36.0998937 L188.516589,34.3995749 L191.274189,34.3995749 Z M187.678703,42.1253985 C188.237297,41.5231993 188.516589,40.740352 188.516589,39.7768332 C188.516589,38.8133143 188.237297,38.0304671 187.678703,37.4282678 C187.12011,36.8260685 186.395363,36.5249734 185.504442,36.5249734 C184.613521,36.5249734 183.888774,36.8296108 183.330181,37.4388948 C182.771587,38.0481787 182.485224,38.8274837 182.471082,39.7768332 C182.485224,40.740352 182.771587,41.5231993 183.330181,42.1253985 C183.888774,42.7275978 184.613521,43.0286929 185.504442,43.0286929 C186.395363,43.0286929 187.12011,42.7275978 187.678703,42.1253985 Z M203.569076,35.8660999 C204.48121,36.9004657 204.93727,38.3528068 204.93727,40.2231668 C204.93727,40.5915711 204.930199,40.8678701 204.916057,41.0520723 L196.537197,41.0520723 C196.721038,41.8597277 197.09932,42.4937986 197.672055,42.9543039 C198.24479,43.4148092 198.948325,43.6450584 199.78268,43.6450584 C200.362486,43.6450584 200.917535,43.5352473 201.447846,43.3156217 C201.978156,43.0959961 202.441286,42.7807318 202.837251,42.3698193 L204.322113,43.9213603 C203.756448,44.5448136 203.067055,45.0265658 202.253913,45.3666312 C201.440771,45.7066967 200.539257,45.8767269 199.549344,45.8767269 C198.389733,45.8767269 197.368017,45.6358508 196.484166,45.1540914 C195.600316,44.672332 194.917994,43.9957536 194.437179,43.1243358 C193.956364,42.2529181 193.715961,41.2504485 193.715961,40.1168969 C193.715961,38.9833454 193.9599,37.9773335 194.447785,37.098831 C194.935671,36.2203286 195.617993,35.5366656 196.494772,35.0478215 C197.371552,34.5589774 198.36852,34.314559 199.485707,34.314559 C201.295833,34.314559 202.656942,34.8317341 203.569076,35.8660999 Z M202.413005,39.2029756 C202.384722,38.3669813 202.108965,37.7010298 201.585726,37.205101 C201.062486,36.7091722 200.369558,36.4612115 199.50692,36.4612115 C198.700848,36.4612115 198.025596,36.7056299 197.481145,37.194474 C196.936693,37.6833181 196.600835,38.3528119 196.47356,39.2029756 L202.413005,39.2029756 Z M216.362452,35.8660999 C217.274586,36.9004657 217.730646,38.3528068 217.730646,40.2231668 C217.730646,40.5915711 217.723575,40.8678701 217.709434,41.0520723 L209.330574,41.0520723 C209.514414,41.8597277 209.892697,42.4937986 210.465432,42.9543039 C211.038167,43.4148092 211.741701,43.6450584 212.576056,43.6450584 C213.155862,43.6450584 213.710912,43.5352473 214.241222,43.3156217 C214.771532,43.0959961 215.234663,42.7807318 215.630628,42.3698193 L217.115489,43.9213603 C216.549825,44.5448136 215.860432,45.0265658 215.04729,45.3666312 C214.234147,45.7066967 213.332633,45.8767269 212.342721,45.8767269 C211.183109,45.8767269 210.161393,45.6358508 209.277543,45.1540914 C208.393692,44.672332 207.71137,43.9957536 207.230555,43.1243358 C206.749741,42.2529181 206.509337,41.2504485 206.509337,40.1168969 C206.509337,38.9833454 206.753276,37.9773335 207.241162,37.098831 C207.729047,36.2203286 208.411369,35.5366656 209.288149,35.0478215 C210.164929,34.5589774 211.161897,34.314559 212.279084,34.314559 C214.08921,34.314559 215.450319,34.8317341 216.362452,35.8660999 Z M215.206382,39.2029756 C215.178099,38.3669813 214.902341,37.7010298 214.379102,37.205101 C213.855862,36.7091722 213.162934,36.4612115 212.300296,36.4612115 C211.494225,36.4612115 210.818973,36.7056299 210.274521,37.194474 C209.730069,37.6833181 209.394211,38.3528119 209.266937,39.2029756 L215.206382,39.2029756 Z M226.981568,45.0690755 C226.076505,45.6216818 225.129031,45.8979809 224.139119,45.8979809 C223.163348,45.8979809 222.364359,45.6110549 221.742128,45.0371945 C221.119898,44.463334 220.808787,43.6167254 220.808787,42.4973433 L220.808787,36.8862912 L219.217864,36.8862912 L219.196652,34.8671626 L220.808787,34.8671626 L220.808787,31.7428268 L223.545174,31.7428268 L223.545174,34.8671626 L226.790657,34.8671626 L226.790657,36.8862912 L223.545174,36.8862912 L223.545174,42.0085016 C223.545174,42.5327692 223.644164,42.9047102 223.842147,43.1243358 C224.040129,43.3439614 224.337098,43.4537726 224.733063,43.4537726 C225.157312,43.4537726 225.694685,43.2979116 226.345199,42.9861849 L226.981568,45.0690755 Z M239.414335,35.4729012 C240.16384,36.2593026 240.538587,37.3255335 240.538587,38.6716259 L240.538587,45.770457 L237.759775,45.770457 L237.759775,39.4792774 C237.759775,38.6857913 237.533513,38.058805 237.080981,37.5982997 C236.62845,37.1377944 236.013299,36.9075452 235.235511,36.9075452 C234.316307,36.9217146 233.588025,37.2334366 233.050644,37.8427205 C232.513263,38.4520045 232.244576,39.2313095 232.244576,40.1806589 L232.244576,45.770457 L229.486976,45.770457 L229.486976,30 L232.244576,30 L232.244576,36.5674814 C233.022364,35.079695 234.387009,34.3216438 236.338551,34.293305 C237.639579,34.293305 238.66483,34.6864998 239.414335,35.4729012 Z M250.574364,45.770457 L250.574364,44.3889479 C250.178399,44.8848767 249.669309,45.26036 249.047078,45.5154091 C248.424847,45.7704582 247.710707,45.8979809 246.904635,45.8979809 C246.112705,45.8979809 245.416242,45.7456622 244.815223,45.4410202 C244.214205,45.1363782 243.751074,44.7148451 243.425817,44.1764081 C243.10056,43.6379711 242.937934,43.0357809 242.937934,42.3698193 C242.937934,41.3071148 243.312681,40.4746753 244.062187,39.8724761 C244.811692,39.2702768 245.872296,38.9620971 247.244032,38.9479277 L250.553152,38.9479277 L250.553152,38.6503719 C250.553152,37.9844104 250.33396,37.4672353 249.89557,37.098831 C249.45718,36.7304268 248.820818,36.5462274 247.986463,36.5462274 C246.911701,36.5462274 245.78746,36.900457 244.613706,37.6089267 L243.616728,35.696068 C244.507649,35.2001392 245.317244,34.8423674 246.045537,34.6227418 C246.77383,34.4031162 247.625849,34.293305 248.60162,34.293305 C250.072347,34.293305 251.214264,34.6475345 252.027407,35.3560043 C252.840549,36.064474 253.254185,37.0563167 253.268327,38.3315622 L253.289539,45.770457 L250.574364,45.770457 Z M249.598598,43.2093518 C250.164262,42.8338628 250.482444,42.3698221 250.553152,41.8172157 L250.553152,40.7970244 L247.689491,40.7970244 C246.954127,40.7970244 246.413219,40.9068356 246.066749,41.1264612 C245.72028,41.3460868 245.547048,41.7038587 245.547048,42.1997875 C245.547048,42.6815469 245.727351,43.0641148 246.087962,43.3475027 C246.448573,43.6308905 246.939986,43.7725824 247.562217,43.7725824 C248.354147,43.7725824 249.032934,43.5848407 249.598598,43.2093518 Z M262.160996,30.8926674 L265.406479,30.8926674 L270.327733,40.4782147 L275.206563,30.8926674 L278.452046,30.8926674 L278.452046,45.770457 L275.842932,45.770457 L275.842932,35.1009564 L271.21865,44.24017 L269.394392,44.24017 L264.748897,35.1009564 L264.748897,45.770457 L262.160996,45.770457 L262.160996,30.8926674 Z M292.412099,38.3740701 L294.893938,38.3740701 L294.893938,44.0276302 C294.11615,44.6085753 293.196959,45.0797006 292.136339,45.4410202 C291.075718,45.8023397 290.036326,45.9829968 289.01813,45.9829968 C287.561545,45.9829968 286.235789,45.6429365 285.040823,44.9628055 C283.845857,44.2826746 282.901919,43.3581355 282.20898,42.1891605 C281.516042,41.0201854 281.169578,39.7272476 281.169578,38.3103082 C281.169578,36.8933688 281.523112,35.6075155 282.230193,34.4527099 C282.937273,33.2979043 283.902423,32.383992 285.125672,31.7109458 C286.348921,31.0378996 287.70296,30.7013815 289.187829,30.7013815 C290.248449,30.7013815 291.294912,30.8926655 292.32725,31.2752391 C293.359587,31.6578128 294.250495,32.1820725 295,32.848034 L293.387865,34.9521785 C292.822201,34.4137416 292.168161,33.9957507 291.425727,33.6981934 C290.683292,33.4006361 289.937334,33.2518597 289.187829,33.2518597 C288.254483,33.2518597 287.395393,33.4750243 286.610534,33.9213603 C285.825674,34.3676962 285.206988,34.9805133 284.754457,35.75983 C284.301926,36.5391467 284.075663,37.3892976 284.075663,38.3103082 C284.075663,39.2454882 284.305461,40.1027237 284.765063,40.8820404 C285.224665,41.6613571 285.843351,42.2777165 286.62114,42.7311371 C287.398928,43.1845577 288.261553,43.4112646 289.209041,43.4112646 C289.718139,43.4112646 290.251976,43.3297918 290.81057,43.1668438 C291.369163,43.0038957 291.903001,42.7736465 292.412099,42.4760893 L292.412099,38.3740701 Z" id="Sangeetha-MG" fill="#000000"></path>
    </g>
</svg>